<svg width="60" height="60" viewBox="0 0 60 60" fill="none" xmlns="http://www.w3.org/2000/svg">
<path fill-rule="evenodd" clip-rule="evenodd" d="M26.4897 38.5994C27.5124 39.0256 28.68 39.2386 29.9925 39.2386C31.305 39.2386 32.4698 39.0256 33.4869 38.5994C34.5096 38.1676 35.3107 37.5795 35.8903 36.8352C36.4698 36.0909 36.7624 35.2472 36.7681 34.304C36.7624 33.5767 36.5891 32.9091 36.2482 32.3011C35.913 31.6875 35.4585 31.179 34.8846 30.7756C34.3164 30.3665 33.6829 30.1051 32.984 29.9915V29.8722C33.8988 29.6847 34.6488 29.233 35.234 28.517C35.8192 27.8011 36.1147 26.9631 36.1204 26.0028C36.1147 25.1051 35.8477 24.304 35.3192 23.5994C34.7908 22.8892 34.0636 22.3295 33.1374 21.9205C32.217 21.5114 31.1687 21.3068 29.9925 21.3068C28.8164 21.3068 27.7653 21.5114 26.8391 21.9205C25.9187 22.3239 25.1942 22.8807 24.6658 23.5909C24.1374 24.2955 23.8732 25.0994 23.8732 26.0028C23.8732 26.9574 24.163 27.7955 24.7425 28.517C25.3221 29.233 26.0778 29.6847 27.0096 29.8722V29.9915C26.2994 30.1051 25.6573 30.3665 25.0835 30.7756C24.5096 31.179 24.055 31.6875 23.7198 32.3011C23.3903 32.9091 23.2255 33.5767 23.2255 34.304C23.2255 35.2472 23.5153 36.0909 24.0948 36.8352C24.6744 37.5795 25.4727 38.1676 26.4897 38.5994ZM31.5266 36.2131C31.0891 36.4233 30.5778 36.5284 29.9925 36.5284C29.413 36.5284 28.9016 36.4233 28.4585 36.2131C28.0153 35.9972 27.6715 35.7017 27.4272 35.3267C27.1829 34.946 27.0607 34.5085 27.0607 34.0142C27.0607 33.5085 27.1857 33.0625 27.4357 32.6761C27.6914 32.2841 28.0408 31.9773 28.484 31.7557C28.9272 31.5284 29.43 31.4148 29.9925 31.4148C30.5607 31.4148 31.0636 31.5284 31.5011 31.7557C31.9386 31.9773 32.2852 32.2841 32.5408 32.6761C32.7965 33.0625 32.9244 33.5085 32.9244 34.0142C32.9244 34.5085 32.7994 34.946 32.5494 35.3267C32.305 35.7017 31.9641 35.9972 31.5266 36.2131ZM31.2965 28.4318C30.9158 28.6307 30.4812 28.7301 29.9925 28.7301C29.5039 28.7301 29.0692 28.6307 28.6886 28.4318C28.3079 28.233 28.0096 27.9574 27.7937 27.6051C27.5778 27.2528 27.4698 26.8466 27.4698 26.3864C27.4698 25.9318 27.5749 25.5341 27.7852 25.1932C28.0011 24.8466 28.2994 24.5767 28.68 24.3835C29.0607 24.1847 29.4982 24.0852 29.9925 24.0852C30.4925 24.0852 30.93 24.1847 31.305 24.3835C31.68 24.5767 31.9755 24.8466 32.1914 25.1932C32.4073 25.5341 32.5153 25.9318 32.5153 26.3864C32.5153 26.8466 32.4073 27.2528 32.1914 27.6051C31.9755 27.9574 31.6772 28.233 31.2965 28.4318Z" fill="url(#paint0_linear_1_154)"/>
<path fill-rule="evenodd" clip-rule="evenodd" d="M60 30C60 46.5685 46.5685 60 30 60C13.4315 60 0 46.5685 0 30C0 13.4315 13.4315 0 30 0C46.5685 0 60 13.4315 60 30ZM55 30C55 43.8071 43.8071 55 30 55C16.1929 55 5 43.8071 5 30C5 16.1929 16.1929 5 30 5C43.8071 5 55 16.1929 55 30Z" fill="url(#paint1_linear_1_154)"/>
<defs>
<linearGradient id="paint0_linear_1_154" x1="30" y1="0" x2="30" y2="60" gradientUnits="userSpaceOnUse">
<stop stop-color="#2864E0"/>
<stop offset="1" stop-color="#DC095A"/>
</linearGradient>
<linearGradient id="paint1_linear_1_154" x1="30" y1="0" x2="30" y2="60" gradientUnits="userSpaceOnUse">
<stop stop-color="#2864E0"/>
<stop offset="1" stop-color="#DC095A"/>
</linearGradient>
</defs>
</svg>
