<svg width="60" height="60" viewBox="0 0 60 60" fill="none" xmlns="http://www.w3.org/2000/svg">
<path fill-rule="evenodd" clip-rule="evenodd" d="M27.5923 38.7869C28.4276 39.0824 29.294 39.233 30.1918 39.2386C31.4872 39.2443 32.6236 38.9886 33.6009 38.4716C34.5838 37.9489 35.348 37.2273 35.8935 36.3068C36.4446 35.3864 36.7202 34.3352 36.7202 33.1534C36.7202 32.0625 36.4872 31.0938 36.0213 30.2472C35.5554 29.4006 34.919 28.7358 34.1122 28.2528C33.3054 27.7642 32.3849 27.5199 31.3509 27.5199C30.7145 27.5199 30.1094 27.6193 29.5355 27.8182C28.9673 28.0114 28.4588 28.2926 28.0099 28.6619C27.5668 29.0256 27.2145 29.4659 26.9531 29.983H26.8338C26.8452 28.2841 27.1435 26.9403 27.7287 25.9517C28.3196 24.9631 29.1832 24.4688 30.3196 24.4688C30.9901 24.4688 31.5526 24.642 32.0071 24.9886C32.4616 25.3352 32.7599 25.8125 32.902 26.4205H36.5412C36.4276 25.4602 36.098 24.5938 35.5526 23.821C35.0128 23.0483 34.2969 22.4375 33.4048 21.9886C32.5128 21.5341 31.4844 21.3068 30.3196 21.3068C29.2401 21.3068 28.2656 21.5199 27.3963 21.946C26.527 22.3665 25.7798 22.9801 25.1548 23.7869C24.5355 24.5938 24.0582 25.5767 23.723 26.7358C23.3935 27.8892 23.2259 29.1989 23.2202 30.6648C23.2202 32.2614 23.4105 33.608 23.7912 34.7045C24.1776 35.8011 24.7003 36.6818 25.3594 37.3466C26.0185 38.0114 26.7628 38.4915 27.5923 38.7869ZM31.7003 35.9318C31.2514 36.2045 30.7429 36.3409 30.1747 36.3409C29.6065 36.3409 29.098 36.2017 28.6491 35.9233C28.206 35.6449 27.8537 35.2727 27.5923 34.8068C27.3366 34.3409 27.2088 33.8267 27.2088 33.2642C27.2088 32.8438 27.2855 32.4489 27.4389 32.0795C27.5923 31.7045 27.8026 31.375 28.0696 31.0909C28.3423 30.8068 28.6577 30.5852 29.0156 30.4261C29.3793 30.267 29.7741 30.1875 30.2003 30.1875C30.7685 30.1875 31.2741 30.3239 31.7173 30.5966C32.1605 30.8693 32.5071 31.2358 32.7571 31.696C33.0128 32.1562 33.1406 32.6761 33.1406 33.2557C33.1406 33.8352 33.0128 34.358 32.7571 34.8239C32.5014 35.2898 32.1491 35.6591 31.7003 35.9318Z" fill="url(#paint0_linear_1_152)"/>
<path fill-rule="evenodd" clip-rule="evenodd" d="M60 30C60 46.5685 46.5685 60 30 60C13.4315 60 0 46.5685 0 30C0 13.4315 13.4315 0 30 0C46.5685 0 60 13.4315 60 30ZM55 30C55 43.8071 43.8071 55 30 55C16.1929 55 5 43.8071 5 30C5 16.1929 16.1929 5 30 5C43.8071 5 55 16.1929 55 30Z" fill="url(#paint1_linear_1_152)"/>
<defs>
<linearGradient id="paint0_linear_1_152" x1="30" y1="0" x2="30" y2="60" gradientUnits="userSpaceOnUse">
<stop stop-color="#2864E0"/>
<stop offset="1" stop-color="#DC095A"/>
</linearGradient>
<linearGradient id="paint1_linear_1_152" x1="30" y1="0" x2="30" y2="60" gradientUnits="userSpaceOnUse">
<stop stop-color="#2864E0"/>
<stop offset="1" stop-color="#DC095A"/>
</linearGradient>
</defs>
</svg>
