<svg width="60" height="60" viewBox="0 0 60 60" fill="none" xmlns="http://www.w3.org/2000/svg">
<path d="M32.7042 24.6818L25.4684 39H29.2781L36.5224 24.6051V21.5455H24.2752V24.5625H32.7042V24.6818Z" fill="url(#paint0_linear_1_153)"/>
<path fill-rule="evenodd" clip-rule="evenodd" d="M60 30C60 46.5685 46.5685 60 30 60C13.4315 60 0 46.5685 0 30C0 13.4315 13.4315 0 30 0C46.5685 0 60 13.4315 60 30ZM55 30C55 43.8071 43.8071 55 30 55C16.1929 55 5 43.8071 5 30C5 16.1929 16.1929 5 30 5C43.8071 5 55 16.1929 55 30Z" fill="url(#paint1_linear_1_153)"/>
<defs>
<linearGradient id="paint0_linear_1_153" x1="30" y1="0" x2="30" y2="60" gradientUnits="userSpaceOnUse">
<stop stop-color="#2864E0"/>
<stop offset="1" stop-color="#DC095A"/>
</linearGradient>
<linearGradient id="paint1_linear_1_153" x1="30" y1="0" x2="30" y2="60" gradientUnits="userSpaceOnUse">
<stop stop-color="#2864E0"/>
<stop offset="1" stop-color="#DC095A"/>
</linearGradient>
</defs>
</svg>
