<svg width="60" height="60" viewBox="0 0 60 60" fill="none" xmlns="http://www.w3.org/2000/svg">
<path d="M26.8338 38.5739C27.777 39.017 28.8509 39.2386 30.0554 39.2386C31.3509 39.2386 32.4872 38.9801 33.4645 38.4631C34.4474 37.9403 35.2116 37.2244 35.7571 36.3153C36.3082 35.4006 36.581 34.3551 36.5753 33.179C36.581 32.0597 36.3452 31.071 35.8679 30.2131C35.3906 29.3494 34.7401 28.6705 33.9162 28.1761C33.0923 27.6818 32.1548 27.4347 31.1037 27.4347C30.3366 27.4347 29.6435 27.5767 29.0241 27.8608C28.4048 28.1449 27.9418 28.5028 27.6349 28.9347H27.5327L27.9844 24.5625H35.6122V21.5455H24.9418L24.1151 30.75L27.3963 31.3381C27.6634 30.9744 28.0355 30.6875 28.5128 30.4773C28.9957 30.267 29.4929 30.1619 30.0043 30.1619C30.5895 30.1676 31.1094 30.3011 31.5639 30.5625C32.0185 30.8239 32.3736 31.1875 32.6293 31.6534C32.8906 32.1193 33.0213 32.6591 33.0213 33.2727C33.0213 33.875 32.8935 34.4091 32.6378 34.875C32.3878 35.3352 32.0384 35.696 31.5895 35.9574C31.1463 36.2131 30.6349 36.3409 30.0554 36.3409C29.3281 36.3409 28.7003 36.1307 28.1719 35.7102C27.6435 35.2898 27.3594 34.7415 27.3196 34.0653H23.7401C23.7628 35.071 24.0497 35.9631 24.6009 36.7415C25.152 37.5199 25.8963 38.1307 26.8338 38.5739Z" fill="url(#paint0_linear_1_151)"/>
<path fill-rule="evenodd" clip-rule="evenodd" d="M60 30C60 46.5685 46.5685 60 30 60C13.4315 60 0 46.5685 0 30C0 13.4315 13.4315 0 30 0C46.5685 0 60 13.4315 60 30ZM55 30C55 43.8071 43.8071 55 30 55C16.1929 55 5 43.8071 5 30C5 16.1929 16.1929 5 30 5C43.8071 5 55 16.1929 55 30Z" fill="url(#paint1_linear_1_151)"/>
<defs>
<linearGradient id="paint0_linear_1_151" x1="30" y1="0" x2="30" y2="60" gradientUnits="userSpaceOnUse">
<stop stop-color="#2864E0"/>
<stop offset="1" stop-color="#DC095A"/>
</linearGradient>
<linearGradient id="paint1_linear_1_151" x1="30" y1="0" x2="30" y2="60" gradientUnits="userSpaceOnUse">
<stop stop-color="#2864E0"/>
<stop offset="1" stop-color="#DC095A"/>
</linearGradient>
</defs>
</svg>
