<svg width="60" height="60" viewBox="0 0 60 60" fill="none" xmlns="http://www.w3.org/2000/svg">
<path d="M26.5558 38.5824C27.5501 39.0199 28.6836 39.2386 29.9563 39.2386C31.2631 39.2386 32.4222 39.017 33.4336 38.5739C34.445 38.1307 35.2376 37.5227 35.8114 36.75C36.391 35.9773 36.6779 35.0938 36.6722 34.0994C36.6779 33.0142 36.3427 32.1108 35.6665 31.3892C34.9961 30.6619 34.0188 30.2159 32.7347 30.0511V29.9148C33.712 29.7386 34.5046 29.3239 35.1126 28.6705C35.7262 28.017 36.0302 27.2017 36.0245 26.2244C36.0302 25.304 35.7802 24.4744 35.2745 23.7358C34.7745 22.9915 34.0728 22.4006 33.1694 21.9631C32.266 21.5256 31.212 21.3068 30.0075 21.3068C28.8143 21.3068 27.7433 21.5256 26.7944 21.9631C25.8512 22.3949 25.1012 22.9943 24.5444 23.7614C23.9876 24.5284 23.7006 25.4148 23.6836 26.4205H27.2205C27.2376 25.9773 27.3711 25.5909 27.6211 25.2614C27.8711 24.9318 28.2035 24.679 28.6183 24.5028C29.033 24.321 29.4904 24.2301 29.9904 24.2301C30.4847 24.2301 30.9165 24.3239 31.2859 24.5114C31.6609 24.6989 31.9506 24.9602 32.1552 25.2955C32.3654 25.625 32.4705 26.0085 32.4705 26.446C32.4705 26.9062 32.3512 27.3097 32.1126 27.6562C31.8739 27.9972 31.5387 28.2642 31.1069 28.4574C30.6808 28.6506 30.1893 28.7472 29.6325 28.7472H28.0046V31.4574H29.6325C30.2915 31.4574 30.8597 31.5597 31.337 31.7642C31.82 31.9688 32.1893 32.2528 32.445 32.6165C32.7063 32.9744 32.837 33.3864 32.837 33.8523C32.837 34.3125 32.7148 34.7188 32.4705 35.071C32.2262 35.4233 31.8881 35.6989 31.4563 35.8977C31.0245 36.0966 30.5273 36.196 29.9648 36.196C29.4251 36.196 28.9393 36.108 28.5075 35.9318C28.0756 35.7557 27.729 35.5085 27.4677 35.1903C27.212 34.8665 27.0728 34.4915 27.0501 34.0653H23.3342C23.3512 35.0824 23.6438 35.9801 24.212 36.7585C24.7859 37.5312 25.5671 38.1392 26.5558 38.5824Z" fill="url(#paint0_linear_1_149)"/>
<path fill-rule="evenodd" clip-rule="evenodd" d="M60 30C60 46.5685 46.5685 60 30 60C13.4315 60 0 46.5685 0 30C0 13.4315 13.4315 0 30 0C46.5685 0 60 13.4315 60 30ZM55 30C55 43.8071 43.8071 55 30 55C16.1929 55 5 43.8071 5 30C5 16.1929 16.1929 5 30 5C43.8071 5 55 16.1929 55 30Z" fill="url(#paint1_linear_1_149)"/>
<defs>
<linearGradient id="paint0_linear_1_149" x1="30" y1="0" x2="30" y2="60" gradientUnits="userSpaceOnUse">
<stop stop-color="#2864E0"/>
<stop offset="1" stop-color="#DC095A"/>
</linearGradient>
<linearGradient id="paint1_linear_1_149" x1="30" y1="0" x2="30" y2="60" gradientUnits="userSpaceOnUse">
<stop stop-color="#2864E0"/>
<stop offset="1" stop-color="#DC095A"/>
</linearGradient>
</defs>
</svg>
