<svg width="60" height="60" viewBox="0 0 60 60" fill="none" xmlns="http://www.w3.org/2000/svg">
<path d="M23.8562 36.3409V39H36.2994V35.983H28.9698V35.8636L31.5181 33.3665C32.717 32.2756 33.646 31.3409 34.305 30.5625C34.9641 29.7784 35.4215 29.0653 35.6772 28.4233C35.9386 27.7812 36.0692 27.1307 36.0692 26.4716C36.0692 25.4659 35.8107 24.5739 35.2937 23.7955C34.7766 23.017 34.0522 22.4091 33.1204 21.9716C32.1942 21.5284 31.1062 21.3068 29.8562 21.3068C28.6403 21.3068 27.5664 21.5369 26.6346 21.9972C25.7028 22.4574 24.9783 23.108 24.4613 23.9489C23.9442 24.7898 23.6857 25.7812 23.6857 26.9233H27.1886C27.1886 26.3665 27.2965 25.8864 27.5124 25.483C27.7283 25.0795 28.0352 24.7699 28.4329 24.554C28.8306 24.3381 29.2965 24.2301 29.8306 24.2301C30.342 24.2301 30.7994 24.3324 31.2028 24.5369C31.6062 24.7358 31.9244 25.0227 32.1573 25.3977C32.3903 25.767 32.5067 26.2074 32.5067 26.7188C32.5067 27.179 32.413 27.608 32.2255 28.0057C32.038 28.3977 31.7624 28.7983 31.3988 29.2074C31.0408 29.6165 30.5977 30.0767 30.0692 30.5881L23.8562 36.3409Z" fill="url(#paint0_linear_1_148)"/>
<path fill-rule="evenodd" clip-rule="evenodd" d="M60 30C60 46.5685 46.5685 60 30 60C13.4315 60 0 46.5685 0 30C0 13.4315 13.4315 0 30 0C46.5685 0 60 13.4315 60 30ZM55 30C55 43.8071 43.8071 55 30 55C16.1929 55 5 43.8071 5 30C5 16.1929 16.1929 5 30 5C43.8071 5 55 16.1929 55 30Z" fill="url(#paint1_linear_1_148)"/>
<defs>
<linearGradient id="paint0_linear_1_148" x1="30" y1="0" x2="30" y2="60" gradientUnits="userSpaceOnUse">
<stop stop-color="#2864E0"/>
<stop offset="1" stop-color="#DC095A"/>
</linearGradient>
<linearGradient id="paint1_linear_1_148" x1="30" y1="0" x2="30" y2="60" gradientUnits="userSpaceOnUse">
<stop stop-color="#2864E0"/>
<stop offset="1" stop-color="#DC095A"/>
</linearGradient>
</defs>
</svg>
