<svg width="60" height="60" viewBox="0 0 60 60" fill="none" xmlns="http://www.w3.org/2000/svg">
<path d="M33.1374 38.9995V21.5449H29.6687L25.3477 24.2807V27.5534L29.3448 25.0478H29.4471V38.9995H33.1374Z" fill="url(#paint0_linear_1_147)"/>
<path fill-rule="evenodd" clip-rule="evenodd" d="M60 30C60 46.5685 46.5685 60 30 60C13.4315 60 0 46.5685 0 30C0 13.4315 13.4315 0 30 0C46.5685 0 60 13.4315 60 30ZM55 30C55 43.8071 43.8071 55 30 55C16.1929 55 5 43.8071 5 30C5 16.1929 16.1929 5 30 5C43.8071 5 55 16.1929 55 30Z" fill="url(#paint1_linear_1_147)"/>
<defs>
<linearGradient id="paint0_linear_1_147" x1="30" y1="0" x2="30" y2="60" gradientUnits="userSpaceOnUse">
<stop stop-color="#2864E0"/>
<stop offset="1" stop-color="#DC095A"/>
</linearGradient>
<linearGradient id="paint1_linear_1_147" x1="30" y1="0" x2="30" y2="60" gradientUnits="userSpaceOnUse">
<stop stop-color="#2864E0"/>
<stop offset="1" stop-color="#DC095A"/>
</linearGradient>
</defs>
</svg>
