<svg width="205" height="56" viewBox="0 0 205 56" fill="none" xmlns="http://www.w3.org/2000/svg">
<path fill-rule="evenodd" clip-rule="evenodd" d="M110.074 33.5008C109.224 33.9367 108.271 34.1582 107.247 34.1582C104.423 34.1582 102.033 32.2953 101.176 29.7789C101.147 29.6944 101.12 29.609 101.094 29.5229H117.44C117.549 28.8784 117.612 28.2162 117.612 27.5187C117.612 24.2961 116.439 21.5767 114.4 19.7314C112.614 18.1156 110.17 17.1621 107.247 17.1621C103.016 17.1621 99.3627 19.546 97.5856 23.0071C96.8459 24.4374 96.4219 26.0442 96.4219 27.7571C96.4219 29.4699 96.8458 31.0768 97.5855 32.5072C99.3626 35.9682 103.016 38.352 107.247 38.352C108.541 38.352 109.742 38.146 110.84 37.7677C113.384 36.9637 115.01 35.4454 116.29 33.4346L112.492 31.2716C111.895 32.2263 110.988 32.9495 110.073 33.4981L110.074 33.5008ZM113.083 25.541C112.822 24.2342 112.055 23.1306 110.918 22.38C109.944 21.7443 108.708 21.356 107.247 21.356C104.496 21.356 102.157 23.1236 101.246 25.541H113.083Z" fill="white"/>
<path d="M183.832 33.8859V38.3061C184.829 38.3366 186.061 38.3523 186.285 38.3523C187.517 38.3523 188.566 37.9984 189.382 37.2523C190.188 36.5384 190.794 35.5679 191.217 34.3704C191.659 33.1891 191.979 31.8281 192.183 30.2924C192.386 28.7679 192.525 27.134 192.601 25.3911L192.601 25.3891L192.787 21.5213H200.334V38.0557H205.001V17.3477H188.673L188.311 25.119L188.311 25.1203C188.261 26.2495 188.186 27.3787 188.087 28.5078C187.989 29.6227 187.83 30.6205 187.612 31.5036C187.402 32.3325 187.083 32.9669 186.675 33.4327L186.671 33.438L186.666 33.4434C186.33 33.8486 185.863 34.0675 185.195 34.0675C185.104 34.0675 184.996 34.0584 184.868 34.0374C184.713 34.0119 184.546 33.9866 184.367 33.9614L183.832 33.8859Z" fill="white"/>
<path fill-rule="evenodd" clip-rule="evenodd" d="M152.879 38.0555V36.3475C152.523 36.6659 152.124 36.952 151.682 37.2063L151.678 37.2084L151.674 37.2104C150.372 37.9334 148.761 38.2779 146.871 38.2779C145.334 38.2779 143.957 38.0209 142.75 37.4919L142.746 37.4901C141.569 36.9623 140.637 36.2252 139.973 35.27L139.969 35.2643C139.306 34.2837 138.976 33.1787 138.976 31.9648C138.976 30.8149 139.248 29.7585 139.799 28.8077L139.802 28.8027L139.805 28.7979C140.399 27.821 141.332 27.0661 142.557 26.5141L142.561 26.5123C143.832 25.952 145.493 25.6888 147.51 25.6888H152.691V25.5142C152.691 24.1176 152.278 23.1141 151.513 22.4223L151.507 22.4171L151.502 22.4118C150.761 21.7021 149.59 21.2986 147.885 21.2986C146.769 21.2986 145.675 21.486 144.604 21.8619L144.599 21.8637L144.594 21.8653C143.52 22.2185 142.63 22.6952 141.913 23.2878L139.849 19.7127C140.913 18.8924 142.166 18.2741 143.6 17.8518C145.104 17.3915 146.671 17.1621 148.299 17.1621C151.109 17.1621 153.356 17.8365 154.963 19.2603C156.591 20.7035 157.358 22.8746 157.358 25.6625V38.0555H152.879ZM150.734 33.6592L150.739 33.6563C151.632 33.1407 152.28 32.4002 152.691 31.4163V29.3063H147.66C146.783 29.3063 146.074 29.3787 145.522 29.5136C144.966 29.6493 144.602 29.8399 144.379 30.0509C143.856 30.547 143.605 31.126 143.605 31.8165C143.605 32.6109 143.913 33.2338 144.558 33.7278C145.212 34.2046 146.163 34.475 147.472 34.475C148.745 34.475 149.826 34.1966 150.734 33.6592Z" fill="white"/>
<path d="M69.4062 17.3475V38.0555H73.7724V25.0328L80.3088 35.8311H82.4818L89.0957 25.0672V38.0555H93.4242V17.3475H89.2141L81.4873 30.1184L73.9586 17.3475H69.4062Z" fill="white"/>
<path d="M118.792 21.5211H126.082V38.0555H130.748V21.5211H138.038V17.3475H118.792V21.5211Z" fill="white"/>
<path d="M159.781 33.8857V38.3059C160.778 38.3364 162.01 38.352 162.234 38.352C163.466 38.352 164.515 37.9982 165.332 37.2521C166.137 36.5382 166.743 35.5677 167.166 34.3701C167.608 33.1889 167.928 31.8279 168.132 30.2922C168.335 28.7677 168.474 27.1338 168.55 25.3909L168.55 25.3889L168.737 21.5211H176.283V38.0555H180.95V17.3475H164.622L164.26 25.1188L164.26 25.1201C164.21 26.2493 164.136 27.3784 164.036 28.5076C163.938 29.6225 163.779 30.6203 163.561 31.5033C163.351 32.3323 163.032 32.9667 162.625 33.4325L162.62 33.4378L162.615 33.4432C162.279 33.8483 161.812 34.0672 161.144 34.0672C161.053 34.0672 160.945 34.0582 160.817 34.0372C160.662 34.0117 160.495 33.9864 160.316 33.9612L159.781 33.8857Z" fill="white"/>
<path d="M47.1718 8.09189C57.2164 18.1474 57.8995 34.0257 49.2209 44.8732L49.1977 44.8499C47.9205 46.4553 46.4685 47.9151 44.8705 49.2005L44.8844 49.2144C42.8052 50.8815 40.5409 52.2035 38.1682 53.1805C35.8137 54.1586 33.2946 54.8199 30.664 55.111V55.0915C28.6261 55.3137 26.5683 55.3093 24.5312 55.0782V55.111C10.7326 53.584 0 41.8728 0 27.6521C0 16.1096 7.07081 6.22028 17.1128 2.08831C27.1121 -2.04441 39.0454 -0.0432089 47.1718 8.09189Z" fill="#DD0858"/>
<path fill-rule="evenodd" clip-rule="evenodd" d="M32.0562 35.9741C30.8254 36.6057 29.4443 36.9265 27.961 36.9265C23.8708 36.9265 20.4077 34.2277 19.1663 30.5824C19.1245 30.4599 19.085 30.3362 19.048 30.2115H42.7282C42.885 29.2778 42.9765 28.3185 42.9765 27.3081C42.9765 22.6395 41.2776 18.7001 38.3242 16.0268C35.7368 13.6862 32.1951 12.3048 27.961 12.3048C21.8321 12.3048 16.5396 15.7582 13.9652 20.7722C12.8936 22.8443 12.2793 25.172 12.2793 27.6534C12.2793 30.1348 12.8935 32.4626 13.9651 34.5347C16.5395 39.5485 21.8321 43.002 27.961 43.002C29.8359 43.002 31.575 42.7035 33.1658 42.1555C36.8517 40.9908 39.2079 38.7912 41.0616 35.8782L35.5603 32.7447C34.6953 34.1278 33.3803 35.1756 32.0559 35.9702L32.0562 35.9741ZM36.4163 24.443C36.0373 22.55 34.9266 20.9512 33.28 19.8638C31.8687 18.9429 30.0781 18.3803 27.961 18.3803C23.9767 18.3803 20.5876 20.9411 19.2672 24.443H36.4163Z" fill="white"/>
</svg>
