<svg width="248" height="73" viewBox="0 0 248 73" fill="none" xmlns="http://www.w3.org/2000/svg">
<path d="M40.1857 0.338136C32.6 0.435379 24.179 3.58929 16.2448 9.67407C8.42443 15.6715 3.42925 22.919 1.43478 30.2747C-0.559693 37.6303 0.535176 45.1336 4.76844 51.0706C9.11255 57.1629 16.2181 59.5263 23.5835 59.0979C30.949 58.6695 38.7729 55.5966 45.5243 50.6458C52.4049 45.6001 57.3 38.2537 59.729 30.7581C62.158 23.2625 62.1985 15.4664 58.5799 9.67896C54.6351 3.36968 47.7713 0.240893 40.1857 0.338136ZM40.2471 5.33814C46.5617 5.25719 51.5312 7.62703 54.5086 12.3889C57.0041 16.3801 57.2426 22.6752 55.1375 29.1711C53.0324 35.6671 48.6626 42.211 42.7202 46.5686C36.6486 51.021 29.5526 53.7448 23.314 54.1077C17.0754 54.4705 11.8921 52.6262 8.66954 48.1067C5.3361 43.4317 4.44802 37.7045 6.09718 31.6223C7.74634 25.5402 12.022 19.1419 19.1339 13.6877C26.388 8.12461 33.9326 5.41909 40.2471 5.33814Z" fill="white"/>
<path d="M39.9839 6.93333C37.9553 6.98583 35.8643 7.34933 33.7815 7.94908C33.7429 7.97408 33.7046 7.98908 33.666 7.98908C32.6661 8.28108 31.6692 8.62258 30.6803 9.01433C29.8059 9.36083 28.947 9.75933 28.0922 10.1716C27.9366 10.2466 27.7755 10.3041 27.6208 10.3816C27.5564 10.4141 27.4955 10.4516 27.4313 10.4841C26.4992 10.9538 25.5782 11.4523 24.686 11.9831C21.8157 13.6908 19.1877 15.6753 17.0278 17.6813C15.4501 19.1466 14.0015 20.8198 12.7342 22.6278C11.8893 23.8333 11.1265 25.0973 10.4557 26.3973C9.44951 28.3471 8.65496 30.3803 8.12171 32.4128C6.36735 39.7266 7.33503 43.7036 11.6311 48.9501C10.4961 38.5083 16.5665 28.4776 25.3424 21.3318C33.3092 14.9573 45.9461 11.0538 54.2234 17.8768C53.8427 15.2518 53.0277 12.9166 51.4226 11.2946C51.0352 10.9031 50.6342 10.5446 50.2256 10.2108C50.0733 10.0858 49.9139 9.98083 49.7588 9.86408C49.4976 9.66658 49.2373 9.46783 48.9685 9.29283C48.7735 9.16533 48.571 9.06033 48.3723 8.94608C48.1345 8.80858 47.8989 8.66333 47.6559 8.54083C47.4389 8.43083 47.216 8.33583 46.995 8.23808C46.7662 8.13808 46.5392 8.03308 46.3064 7.94508C46.0701 7.85508 45.8302 7.77758 45.59 7.70008C45.353 7.62258 45.1142 7.55008 44.8736 7.48508C44.624 7.42008 44.3736 7.36508 44.1203 7.31008C43.9404 7.27258 43.7612 7.23508 43.5796 7.20258C42.7258 7.05008 41.8509 6.97508 40.9637 6.94883C40.6424 6.92383 40.3225 6.92383 39.9977 6.92383L39.9839 6.93333Z" fill="url(#paint0_linear_35_51)"/>
<path d="M62.0872 14.4863C65.5032 29.1065 58.81 41.922 48.2777 50.9072C42.5067 55.9807 33.8555 59.5547 25.3301 60.3857L36.3993 67.7285C43.2847 65.9923 49.7425 62.0807 54.8797 57.3587C62.908 49.9787 68.5137 39.5109 68.1734 28.6684C66.2434 24.5492 64.1197 19.5676 62.0872 14.4863Z" fill="white"/>
<path d="M30.9678 23.582L14.3848 50.5413C17.3048 51.6661 20.4794 52.4503 24.266 52.2178L30.9678 23.582ZM10.3307 57.6419L2.20312 70.4717L20.3379 72.8252L23.0133 60.3949C18.148 60.6816 13.7119 59.7773 10.3307 57.6419Z" fill="url(#paint1_linear_35_51)"/>
<path d="M32.707 21.4766L26.2861 51.7158C30.4587 51.3013 35.4643 49.6165 38.5713 47.8193L40.6855 30.7539L32.707 21.4766ZM24.2793 61.1641L21.6816 72.5996L35.0605 68.4102C35.0795 68.4102 35.0991 68.3857 35.1191 68.3857L35.1875 68.3613C35.2733 68.3463 35.3556 68.3033 35.4414 68.2783C35.494 68.2708 35.5453 68.2295 35.5977 68.2295L24.2793 61.1641Z" fill="url(#paint2_linear_35_51)"/>
<path d="M77.1094 12.6582V61.8223H89.918V22.4902H93.7109V61.8223H106.518V12.6582H77.1094ZM140.236 12.6582V61.8223H151.434L158.08 39.4551V61.8223H168.764V12.6582H158.08L150.918 34.8437V12.6582H140.236ZM109.4 12.6875V22.5215H116.957V61.8223H129.734V22.5215H137.322V12.6875L109.4 12.6875ZM173.861 12.6875V61.8223H185.031V29.4102L189.734 61.8223H197.656L202.117 28.6523V61.8223H213.285V12.6875H196.623L193.711 35.6328L191.949 23.1289C191.403 19.1229 190.888 15.6415 190.402 12.6875L173.861 12.6875ZM221.996 12.6875L215.5 61.8223H228.732L229.492 52.9922H234.074L234.711 61.8223H247.791L240.479 12.6875L221.996 12.6875ZM231.768 23.6738C232.415 31.8478 233.062 38.7173 233.709 44.2813H229.34C229.664 39.9312 230.473 33.0617 231.768 23.6738Z" fill="white"/>
<defs>
<linearGradient id="paint0_linear_35_51" x1="4700.34" y1="6.92383" x2="523.179" y2="4671.53" gradientUnits="userSpaceOnUse">
<stop stop-color="#777777"/>
<stop offset="0.5" stop-color="#CCCCCC"/>
<stop offset="1" stop-color="#999999"/>
</linearGradient>
<linearGradient id="paint1_linear_35_51" x1="577.496" y1="23.582" x2="-991.978" y2="4607.5" gradientUnits="userSpaceOnUse">
<stop stop-color="#FF0000"/>
<stop offset="1" stop-color="#990000"/>
</linearGradient>
<linearGradient id="paint2_linear_35_51" x1="401.76" y1="21.4766" x2="-1816.65" y2="4144.71" gradientUnits="userSpaceOnUse">
<stop stop-color="#CC0000"/>
<stop offset="1" stop-color="#770000"/>
</linearGradient>
</defs>
</svg>
