<svg width="384" height="61" viewBox="0 0 384 61" fill="none" xmlns="http://www.w3.org/2000/svg">
<path fill-rule="evenodd" clip-rule="evenodd" d="M37.0508 0.0625H73.1175L55.2007 24.2246L37.0508 0.118913V0.0625ZM73.2222 59.9685H37.0508V20.4206L55.2007 44.6483L73.2222 20.3444V59.9685Z" fill="white"/>
<path fill-rule="evenodd" clip-rule="evenodd" d="M24.882 59.969V0.00177002H14.1197L0 7.57835V19.7177L12.7421 13.2607V59.969H24.882Z" fill="#C90015"/>
<path fill-rule="evenodd" clip-rule="evenodd" d="M85.3926 0.0625H107.765L85.3926 30.2348V0.0625Z" fill="white"/>
<path fill-rule="evenodd" clip-rule="evenodd" d="M85.3926 59.9683H107.765L85.3926 30.2344V59.9683Z" fill="white"/>
<path fill-rule="evenodd" clip-rule="evenodd" d="M122.94 59.9689L100.57 30.2587L122.957 0.0625H138.022L115.671 30.2109L138.077 59.9689H122.94Z" fill="#C90015"/>
<path fill-rule="evenodd" clip-rule="evenodd" d="M159.022 12.0336V2.27316H164.133V12.0336H166.577V0.068162H156.561V12.0336H159.022ZM178.201 12.0336V9.82859H171.688V6.7517H176.782V4.58101H171.688V2.27316H178.012V0.068162H169.227V12.0336H178.201ZM182.628 12.0336V7.29877H185.397C186.679 7.29877 187.704 6.95684 188.439 6.29037C189.191 5.62353 189.567 4.75184 189.567 3.675C189.567 2.59808 189.191 1.74339 188.439 1.07693C187.704 0.410088 186.679 0.068162 185.397 0.068162H180.166V12.0336H182.628ZM182.628 2.22202H185.226C186.405 2.22202 187.106 2.75179 187.106 3.70904C187.106 4.66629 186.405 5.19643 185.226 5.19643H182.628V2.22202ZM197.447 12.0336C198.713 12.0336 199.721 11.7258 200.473 11.0934C201.225 10.461 201.601 9.64046 201.601 8.63207C201.601 7.76037 201.362 7.0595 200.883 6.49533C200.405 5.93143 199.841 5.57239 199.174 5.43569C199.994 5.09376 200.678 4.27321 200.678 3.05959C200.678 1.14509 199.242 0.068162 197.054 0.068162H191.431V12.0336H197.447ZM193.892 6.78601H196.986C198.2 6.78601 198.935 7.34991 198.935 8.35859C198.935 9.36707 198.2 9.91414 196.986 9.91414H193.892V6.78601ZM193.892 2.11945H196.661C197.687 2.11945 198.302 2.61509 198.302 3.45266C198.302 4.27321 197.687 4.75184 196.661 4.75184H193.892V2.11945ZM205.208 12.0336L206.387 9.26441H211.447L212.627 12.0336H215.242L210.114 0H207.755L202.627 12.0336H205.208ZM208.917 3.0767L210.661 7.23032H207.157L208.917 3.0767ZM218.643 12.0336L222.165 7.1962H224.25V12.0336H226.711V0.068162H221.173C219.908 0.068162 218.9 0.393071 218.165 1.05953C217.43 1.70926 217.054 2.56395 217.054 3.60647C217.054 5.19643 217.977 6.44409 219.549 6.92271L215.806 12.0336H218.643ZM221.31 5.12789C220.199 5.12789 219.532 4.61514 219.532 3.675C219.532 2.76918 220.199 2.22202 221.31 2.22202H224.25V5.12789H221.31ZM159.022 35.9785V27.7907L161.825 31.6368H163.193L165.945 27.7907V35.9785H168.372V24.0131H165.945L162.475 28.9702L159.005 24.0131H156.561V35.9785H159.022ZM179.995 35.9785V33.7735H173.483V30.6966H178.577V28.526H173.483V26.2181H179.807V24.0131H171.021V35.9785H179.995ZM181.158 26.2181H184.935V35.9785H187.397V26.2181H191.192V24.0131H181.158V26.2181ZM192.85 35.9785L194.029 33.2093H199.089L200.268 35.9785H202.883L197.755 23.9449H195.396L190.268 35.9785H192.85ZM196.559 27.0216L198.302 31.1752H194.798L196.559 27.0216ZM203.277 35.876C203.516 35.9785 203.858 36.0297 204.285 36.0297C205.704 36.0297 206.678 35.4999 207.242 34.4401C207.806 33.3631 208.114 31.4315 208.2 28.6456L208.268 26.2181H211.892V35.9785H214.336V24.0131H205.892L205.84 27.5173C205.806 29.9445 205.67 31.6026 205.447 32.4743C205.225 33.346 204.798 33.7906 204.148 33.7906C203.806 33.7906 203.516 33.7394 203.277 33.6538V35.876ZM215.789 35.876C216.028 35.9785 216.37 36.0297 216.797 36.0297C218.216 36.0297 219.19 35.4999 219.754 34.4401C220.318 33.3631 220.626 31.4315 220.712 28.6456L220.78 26.2181H224.404V35.9785H226.848V24.0131H218.404L218.353 27.5173C218.319 29.9445 218.182 31.6026 217.96 32.4743C217.737 33.346 217.31 33.7906 216.66 33.7906C216.319 33.7906 216.028 33.7394 215.789 33.6538V35.876ZM232.643 32.7993C231.942 32.0643 231.6 31.124 231.6 29.996C231.6 28.8676 231.942 27.9277 232.643 27.1927C233.344 26.4575 234.232 26.0814 235.292 26.0814C236.352 26.0814 237.224 26.4575 237.924 27.1927C238.625 27.9277 238.984 28.8676 238.984 29.996C238.984 31.124 238.625 32.0643 237.924 32.7993C237.224 33.5343 236.352 33.9102 235.292 33.9102C234.232 33.9102 233.344 33.5343 232.643 32.7993ZM229.087 29.996C229.087 31.7223 229.668 33.1923 230.848 34.406C232.027 35.6196 233.514 36.2178 235.292 36.2178C237.07 36.2178 238.54 35.6196 239.719 34.406C240.899 33.1923 241.497 31.7223 241.497 29.996C241.497 28.2523 240.899 26.7823 239.719 25.5857C238.54 24.372 237.07 23.7738 235.292 23.7738C233.514 23.7738 232.027 24.372 230.848 25.5857C229.668 26.7823 229.087 28.2523 229.087 29.996ZM249.787 36.2178C251.086 36.2178 252.214 35.9274 253.189 35.3461V32.8674C252.3 33.5683 251.206 33.9102 249.907 33.9102C248.727 33.9102 247.753 33.5513 246.984 32.8163C246.215 32.0813 245.822 31.141 245.822 29.996C245.822 28.8506 246.198 27.9277 246.95 27.1927C247.719 26.4575 248.659 26.0814 249.804 26.0814C250.984 26.0814 252.026 26.3892 252.949 27.0045V24.5261C252.009 24.0302 250.967 23.7738 249.787 23.7738C247.924 23.7738 246.369 24.355 245.138 25.5175C243.924 26.6797 243.309 28.167 243.309 29.996C243.309 31.8079 243.924 33.2949 245.155 34.4744C246.386 35.6366 247.924 36.2178 249.787 36.2178ZM257.753 35.9785V30.731H263.154V35.9785H265.598V24.0131H263.154V28.4916H257.753V24.0131H255.291V35.9785H257.753ZM269.786 35.9785L270.966 33.2093H276.025L277.205 35.9785H279.82L274.692 23.9449H272.333L267.205 35.9785H269.786ZM273.495 27.0216L275.239 31.1752H271.735L273.495 27.0216ZM286.572 35.9785C287.974 35.9785 289.085 35.6196 289.888 34.9016C290.691 34.1666 291.102 33.2265 291.102 32.0643C291.102 30.9018 290.691 29.9616 289.871 29.2266C289.068 28.4916 287.957 28.1326 286.572 28.1326H283.871V26.2181H290.093V24.0131H281.41V35.9785H286.572ZM283.871 30.1838H286.384C287.803 30.1838 288.623 30.8506 288.623 32.0128C288.623 33.1752 287.803 33.8076 286.384 33.8076H283.871V30.1838ZM294.965 35.9785L299.238 30.6966V35.9785H301.7V30.6966L305.973 35.9785H309.186L304.11 29.7737L308.674 24.0131H305.648L301.7 29.0557V24.0131H299.238V29.0557L295.307 24.0131H292.281L296.828 29.7737L291.768 35.9785H294.965ZM312.144 35.9785L313.323 33.2093H318.382L319.562 35.9785H322.177L317.049 23.9449H314.69L309.562 35.9785H312.144ZM315.853 27.0216L317.596 31.1752H314.092L315.853 27.0216ZM333.698 23.7738C332.245 23.7738 330.98 24.2525 329.938 25.2097C328.895 26.167 328.245 27.3806 328.006 28.8335H326.262V24.0131H323.767V35.9785H326.262V31.0729H327.989C328.262 32.577 328.912 33.8076 329.921 34.7819C330.946 35.7392 332.211 36.2178 333.698 36.2178C335.356 36.2178 336.741 35.6196 337.835 34.423C338.946 33.2094 339.493 31.7393 339.493 29.996C339.493 28.2523 338.946 26.7823 337.835 25.5857C336.741 24.372 335.356 23.7738 333.698 23.7738ZM333.698 33.9102C332.741 33.9102 331.955 33.5513 331.339 32.8333C330.724 32.1154 330.416 31.1752 330.416 29.996C330.416 28.8165 330.724 27.8592 331.339 27.1583C331.955 26.4404 332.741 26.0814 333.698 26.0814C334.673 26.0814 335.459 26.4404 336.074 27.1583C336.689 27.8592 336.997 28.8165 336.997 29.996C336.997 31.1752 336.689 32.1324 336.074 32.8504C335.459 33.5513 334.673 33.9102 333.698 33.9102ZM358.381 38.4228V33.7735H356.723V24.0131H354.278V33.7735H350.45V24.0131H348.005V33.7735H344.176V24.0131H341.715V35.9785H356.056V38.4228H358.381ZM361.714 35.9785L362.893 33.2093H367.953L369.133 35.9785H371.748L366.62 23.9449H364.261L359.133 35.9785H361.714ZM365.423 27.0216L367.167 31.1752H363.663L365.423 27.0216ZM375.15 35.9785L378.671 31.141H380.756V35.9785H383.217V24.0131H377.679C376.414 24.0131 375.406 24.338 374.671 25.0045C373.936 25.6542 373.56 26.5089 373.56 27.5514C373.56 29.1413 374.483 30.389 376.055 30.8676L372.312 35.9785H375.15ZM377.816 29.0728C376.705 29.0728 376.038 28.5601 376.038 27.6199C376.038 26.714 376.705 26.167 377.816 26.167H380.756V29.0728H377.816ZM159.022 59.9235V54.4022L164.167 59.9235H167.312L161.364 53.4452L166.44 47.958H163.432L159.022 52.6758V47.958H156.561V59.9235H159.022ZM170.56 56.7441C169.859 56.0091 169.517 55.069 169.517 53.9409C169.517 52.8125 169.859 51.8726 170.56 51.1376C171.261 50.4023 172.15 50.0263 173.21 50.0263C174.269 50.0263 175.141 50.4023 175.842 51.1376C176.543 51.8726 176.902 52.8125 176.902 53.9409C176.902 55.069 176.543 56.0091 175.842 56.7441C175.141 57.4791 174.269 57.8552 173.21 57.8552C172.15 57.8552 171.261 57.4791 170.56 56.7441ZM167.005 53.9409C167.005 55.6673 167.586 57.1373 168.765 58.3508C169.945 59.5644 171.432 60.1627 173.21 60.1627C174.987 60.1627 176.457 59.5644 177.637 58.3508C178.816 57.1373 179.414 55.6673 179.414 53.9409C179.414 52.1972 178.816 50.7272 177.637 49.5306C176.457 48.317 174.987 47.7187 173.21 47.7187C171.432 47.7187 169.945 48.317 168.765 49.5306C167.586 50.7272 167.005 52.1972 167.005 53.9409ZM184.098 59.9235V51.7356L186.901 55.5817H188.269L191.021 51.7356V59.9235H193.448V47.958H191.021L187.551 52.9151L184.081 47.958H181.636V59.9235H184.098ZM198.559 59.9235V50.163H203.67V59.9235H206.114V47.958H196.097V59.9235H198.559ZM210.302 59.9235L211.481 57.1543H216.541L217.72 59.9235H220.335L215.208 47.8898H212.849L207.721 59.9235H210.302ZM214.011 50.9665L215.755 55.1201H212.25L214.011 50.9665ZM224.387 59.9235V54.6759H229.788V59.9235H232.233V47.958H229.788V52.4365H224.387V47.958H221.925V59.9235H224.387ZM236.95 59.9235L242.813 52.0775V59.9235H245.258V47.958H243.138L237.343 55.7528V47.958H234.882V59.9235H236.95ZM249.719 59.9235L253.24 55.086H255.326V59.9235H257.787V47.958H252.249C250.984 47.958 249.975 48.2829 249.24 48.9494C248.505 49.5992 248.129 50.4537 248.129 51.4963C248.129 53.0862 249.052 54.334 250.625 54.8126L246.881 59.9235H249.719ZM252.386 53.0178C251.274 53.0178 250.608 52.505 250.608 51.5648C250.608 50.659 251.274 50.1119 252.386 50.1119H255.326V53.0178H252.386Z" fill="white"/>
</svg>
